<svg version="1" xmlns="http://www.w3.org/2000/svg" width="346.667" height="346.667" viewBox="0 0 260.000000 260.000000"><path d="M29.2 12.7c.9 1 2.1 2.8 2.7 4 1.4 2.7 2.7 18.4 1.4 16.5-1.7-2.3-7.7-6.2-9.6-6.2-1.9 0-1.9.1-.3 1.9 1 1.1 2.6 6.8 4.1 15 1.3 7.2 2.6 14.1 3 15.3.6 2.2.6 2.2-1.4-.2-1.1-1.4-2.3-3.2-2.6-4-.7-1.7-5.4-5.7-8.1-6.7-1.6-.6-1.6-.4.2 1.5 1.2 1.3 3.6 7.3 5.4 13.5 1.8 6.1 4.7 14.4 6.5 18.4l3.3 7.1-3.4-1.4c-1.9-.8-3.4-1.2-3.4-.9 0 .3.9 2.5 2.1 5 4 8.5 14.1 16.3 23.3 18 3.2.6 3.7 1.1 3.2 2.9-.6 2.4-1.3 13-2.2 33.1-.7 14.9-.9 17.7-1.8 24-.3 2.2-.8 6-1.1 8.5-3.5 25.2-11.7 47.3-19.6 52.6-1.6 1-2.7 2.3-2.6 2.9.7 2 13.4 7.5 22.8 9.9 18.6 4.8 33.7 6 72.4 6.1 42.5 0 63.3-1.2 79-4.8 12.5-2.9 21.9-6.4 27.9-10.6l3-2-2.5-1c-9.6-3.6-19-29.1-22.5-60.6-.3-3.3-.8-6.8-1-7.8-.2-1-.6-8.5-.9-16.5-.7-19.4-1.5-31.2-2.2-34-.4-1.8-.1-2.2 1.8-2.2 3 0 13.6-5.1 16.9-8.2 3.8-3.4 7.6-8.9 8.8-12.5l1.1-3.3-3.4 1.5-3.5 1.4 2.5-4.9c2.3-4.5 7.1-17.9 8-22.4.9-3.9 2.8-9.2 4.4-11.5 1.5-2.3 1.4-2.3-.4-1.3-3.7 2.2-5.2 3.7-8.5 8.7-3.2 5-3.2 5-2.6 1.5.4-1.9 1.3-7.8 2.2-13 1.8-11.6 3.1-16.1 5.2-17.8 1.4-1.1 1.4-1.2-.4-1.2-2.2 0-7.7 3.7-9.9 6.7-1.2 1.6-1.3.9-.9-5.6.5-7.9 2.4-13.6 5.2-15.7 1.5-1.2 1.4-1.3-1-1.4-3.9 0-9.1 4.9-12.3 11.8-2.4 5.1-7.5 22.7-8.8 30.7-3.5 21-4.9 27.3-8.2 34.9l-1.7 3.9-4-6.4C187.7 74.6 181.3 69.7 160 59c-16.1-8.1-22.5-12.5-27.7-19.2l-2.1-2.8-3.3 3.8c-5.6 6.3-12.3 10.8-28 18.8-21.2 10.7-27.8 16-35 28.2-2.4 4-2.8 4.3-3.7 2.6-1.6-3-5.2-14.6-5.8-18.4-.3-1.9-.9-5.8-1.4-8.5-.6-2.8-1.3-6.8-1.6-9-1.3-8.6-6.3-26.5-9-31.9C39.2 16.1 33.8 11 30.1 11c-2.2 0-2.3.1-.9 1.7z"/></svg>