<svg width="25" height="25" xmlns="http://www.w3.org/2000/svg" viewBox="0 0 60 60">
  <path d="M54 58h-3v-4h-5V43.778c0-2.7-1.342-5.208-3.589-6.706L31.803 30l10.608-7.072C44.658 21.43 46 18.922 46 16.222V6h5V2h3c.552 0 1-.447 1-1s-.448-1-1-1H6c-.552 0-1 .447-1 1s.448 1 1 1h3v4h5v10.222c0 2.7 1.342 5.208 3.589 6.706L28.197 30l-10.608 7.072C15.342 38.57 14 41.078 14 43.778V54H9v4H6c-.552 0-1 .447-1 1s.448 1 1 1h48c.552 0 1-.447 1-1s-.448-1-1-1zM18.698 21.264C17.009 20.137 16 18.252 16 16.222V6h28v10.222c0 2.03-1.009 3.915-2.698 5.042L30 28.798l-11.302-7.534zM16 43.778c0-2.03 1.009-3.915 2.698-5.042L30 31.202l11.302 7.534C42.991 39.863 44 41.748 44 43.778V54H16V43.778z"/>
  <path d="M20.917 17.936c-.574-.383-.917-1.024-.917-1.714V14c0-.553-.448-1-1-1s-1 .447-1 1v2.222c0 1.361.676 2.624 1.808 3.378l4.638 3.092c.17.113.363.168.554.168.323 0 .64-.156.833-.445.306-.46.182-1.08-.277-1.387l-4.639-3.092zM40.192 41.26l-4.638-3.092c-.46-.307-1.08-.183-1.387.277-.306.46-.182 1.08.277 1.387l4.638 3.092c.575.383.918 1.023.918 1.714v2.222c0 .553.448 1 1 1s1-.447 1-1v-2.222c0-1.362-.676-2.624-1.808-3.378z"/>
</svg>
