<svg xmlns="http://www.w3.org/2000/svg" width="300" height="113"><path id="Layer" d="M24.16.9C24.6.41 274.07.38 274.61.87c.47.42.49 4.98.03 5.49-.44.49-249.91.52-250.45.03-.47-.42-.49-4.98-.03-5.49zm17.42 30.26c4.41-.36 9.5-.07 10.73.61.43.24 1.12.52 1.54.63.42.11.91.35 1.08.53.17.18.64.49 1.04.69.4.2.89.57 1.11.81.21.25.5.52.63.6.36.23 1.77 2.41 1.89 2.93.06.25.25.62.43.82.79.87.78.76.85 15.83.07 16.02-.01 18.09-.71 19.01-.25.33-.52.79-.59 1.03-.42 1.33-2.4 3.6-3.85 4.41-.34.19-.76.48-.93.66-.18.18-.71.44-1.19.58-.48.14-1.15.42-1.49.63-1.63.95-11.17.93-12.76-.03-.35-.21-1.07-.53-1.6-.71-1.58-.54-4.48-2.98-5.27-4.44-.19-.35-.5-.83-.69-1.08-.19-.25-.45-.85-.56-1.35-.11-.49-.38-1.26-.59-1.71-.45-.96-.61-28.4-.17-30.31.3-1.33 1.13-3.57 1.39-3.78.13-.1.37-.46.54-.81.34-.68 2.36-2.71 3.19-3.19.28-.17.51-.36.51-.44 0-.2 1-.69 1.41-.69.19 0 .82-.25 1.4-.56.85-.45 1.37-.58 2.67-.69zm26.35.24c.61-.2 1.25-.06 1.25.28 0 .09.51.69 1.12 1.33.62.65 1.77 1.95 2.56 2.9s1.72 2.03 2.07 2.4c.35.37 1.16 1.26 1.8 1.99.64.73 1.65 1.84 2.25 2.47.59.63 1.4 1.52 1.8 1.99.4.46.88 1.02 1.08 1.24.54.6 1.93 2.22 2.35 2.73.42.52 1.49.25 2.03-.51.3-.43 1.05-1.28 2.15-2.43.42-.44.76-.88.76-.97 0-.09.12-.17.27-.17.15 0 .27-.08.27-.17 0-.09.36-.56.8-1.03.44-.48 1.03-1.11 1.3-1.41.81-.88 2.81-3.15 3.71-4.22.46-.54 1.1-1.28 1.42-1.64.32-.36 1.11-1.24 1.75-1.96 1.42-1.59 2.86-3.06 2.99-3.06.06 0 .35.12.67.27l.57.27-.05 23.79c-.04 17.96 0 23.98.16 24.56.17.6.17.82 0 .99-.27.27-11.13.41-11.4.15-.29-.29-.17-17.52.13-18.23.13-.32.27-1.44.31-2.47l.07-1.89-.75-.05c-.57-.04-.8.03-.99.29-.13.19-.56.71-.96 1.15-.4.44-1.04 1.19-1.44 1.66-.4.47-.92 1.08-1.17 1.35-.25.27-.59.67-.76.88-.59.73-1.53.53-2.47-.52-.45-.49-1.28-1.4-1.86-2.02-.58-.62-1.25-1.41-1.49-1.77-.49-.73-1.76-1.41-2.06-1.11-.12.12-.15 1.21-.08 3.04.06 1.57.16 6.3.23 10.5.1 5.47.2 7.79.36 8.15.53 1.2.52 1.2-5.8 1.2-3.42 0-5.69-.07-5.75-.17-.16-.25-.1-48.18.06-48.93.11-.51.25-.67.76-.83zm101.08-.06c2.19-.26 5.3-.02 7.12.55.9.28 1.92.52 2.27.52 1.94 0 3.62 1.57 2.86 2.67-.39.57-.75 1.55-.75 2.08 0 .21-.2.76-.44 1.21-.24.46-.53 1.23-.64 1.71-.33 1.49-1.46 3.48-1.97 3.48-.35 0-2.11-.61-2.5-.87-.66-.43-4.87-.44-5.36-.01-.18.16-.76.51-1.28.77s-.95.5-.95.53c0 .03-.2.62-.45 1.3-.33.89-.41 1.34-.29 1.6.09.2.26.62.38.94.22.59 1.5 1.85 1.88 1.85.12 0 .44.23.71.52.32.34.74.55 1.21.61.39.05.97.29 1.29.54.32.24.9.5 1.3.57.4.07 1.08.37 1.52.66.44.29 1.01.58 1.26.64.25.06.67.34.94.62.27.28.55.52.64.52.59 0 3.39 2.96 4.11 4.35.17.33.46.8.63 1.05 1.38 1.93 1.32 9.91-.11 12.86-.34.69-.66 1.47-.72 1.73-.06.26-.35.7-.64.98-.29.28-.52.58-.52.68 0 .19-2.67 2.82-2.86 2.82-.06 0-.56.28-1.1.63s-1.31.72-1.7.82c-.4.1-1.19.39-1.76.64-1.35.59-9.44.61-10.5.03-.31-.17-1.31-.48-2.21-.68-.99-.22-1.8-.51-2.03-.73-.21-.2-.7-.41-1.07-.47-1.42-.23-2.42-1.64-1.79-2.53.2-.28.46-1.04.58-1.67.11-.64.37-1.48.57-1.88.2-.4.48-1.29.63-1.98.53-2.48 1.77-4.36 2.39-3.61.12.14.67.36 1.24.48.56.12 1.32.41 1.68.65.36.23 1.13.5 1.71.58.58.08 1.54.28 2.13.44 1.85.49 3.81.09 4.97-1.03 1.02-.98 1.08-3.49.09-4.14-.23-.15-.66-.52-.97-.82-.31-.3-.67-.55-.81-.55s-.59-.24-1-.54c-.41-.3-.83-.54-.94-.54-.22 0-1.3-.53-1.43-.71-.05-.07-.53-.31-1.08-.54-.54-.23-1.24-.61-1.55-.85-.31-.24-.68-.43-.83-.43-.15 0-.38-.12-.5-.27-.13-.15-.89-.77-1.69-1.38-1.39-1.06-2.08-1.69-2.09-1.92 0-.06-.28-.43-.62-.82-.34-.39-.67-.93-.73-1.2-.06-.27-.23-.59-.38-.71-.56-.47-1.15-2.74-1.15-4.48 0-.44-.12-1.04-.27-1.32-.33-.64-.33-.82-.01-2.27.14-.64.36-1.9.48-2.79.21-1.59.6-2.79.9-2.79.08 0 .24-.32.34-.71.33-1.23 3.6-4.66 4.94-5.19.4-.16.96-.47 1.24-.7.34-.28.74-.42 1.22-.42.39 0 1.29-.21 2.01-.46.72-.25 1.83-.53 2.47-.6zm52.76.73c.88-.94 1.08-1 1.88-.57.19.1.23 4.53.22 24.08-.01 21.94.01 24 .28 24.53.6 1.17.31 1.23-5.95 1.23-6.16 0-6.07.02-5.69-1.24.14-.47.21-3.19.21-8.73 0-6.76.04-8.17.28-8.89.19-.57.26-1.35.23-2.37l-.05-1.52-.74-.05c-.67-.05-.78.01-1.25.63-.65.87-2.55 3.09-3.04 3.56-.21.2-.56.62-.79.94-.68.95-2.73.56-2.73-.52 0-.08-.12-.15-.27-.15-.15 0-.27-.08-.27-.17 0-.09-.37-.56-.81-1.03-.45-.48-1.03-1.13-1.3-1.45-2.52-2.98-2.98-2.82-2.84 1.02.06 1.44.16 6.15.24 10.45.11 6.15.19 7.94.39 8.39.51 1.13.46 1.14-5.71 1.14s-6.28-.02-5.96-1.14c.1-.33.16-10.69.16-24.53 0-23.5.01-23.96.35-24.15.94-.5 1.44-.18 3.43 2.16.35.41.93 1.08 1.29 1.49.36.41 1.28 1.47 2.04 2.35.76.88 1.64 1.87 1.95 2.19.31.32 1.14 1.21 1.83 1.97 2.4 2.63 3.22 3.56 4.14 4.65.4.48.91 1.08 1.14 1.34.23.26.61.69.83.96.5.59 1.46.41 2.13-.4.22-.26.64-.78.93-1.15.3-.37 1.02-1.19 1.62-1.82 4.1-4.38 8.9-9.88 8.9-10.19 0-.08.12-.14.27-.14.15 0 .27-.07.27-.15 0-.08.34-.51.76-.96.42-.45 1.16-1.23 1.64-1.75zM16.94 31.5c3.07-.05 5.79-.11 6.04-.13 1.08-.09 1.15.22 1.21 5.52.05 4.53.04 4.83-.29 5.23l-.35.43-4.88-.05c-5.33-.06-5.32-.06-6.63 1.12l-.4.36v12.31c0 11.01.03 12.36.29 12.8.59.99.6 1 6.87 1.09 5.39.08 5.83.11 6.06.42.19.26.24 1.36.21 5.19l-.03 4.85-.43.35c-.71.57-13.55.44-14.78-.16-.45-.22-1.25-.49-1.77-.6-.61-.13-1.13-.39-1.47-.72-.29-.29-.61-.52-.71-.52-.1 0-.48-.27-.85-.6-.37-.33-.83-.68-1.02-.79-.91-.49-3.05-4.41-3.4-6.2C.3 69.77.3 43.26.61 41.49c.23-1.33 1.2-3.45 2.12-4.67.86-1.13 2.99-3.16 3.32-3.16.08 0 .44-.24.81-.54.37-.29.97-.58 1.33-.64.36-.06 1.22-.28 1.91-.5 1.14-.36 1.77-.4 6.84-.49zm97.31-.03c2.87-.03 5.34-.07 5.5-.09.16-.02.42.1.58.28.44.48.48 49.29.04 49.54-.15.08-2.69.13-5.65.1-6.01-.06-6.27-.11-5.6-1.04.35-.49.36-.84.36-23.92V32.92l-.38-.54c-.59-.83-.42-.86 5.15-.91zm153.56.08c.25-.41 18.35-.03 19.89.41.84.24 1.75.44 2.03.44.54 0 1.57.45 1.57.69 0 .08.3.25.67.37.37.13.93.49 1.24.8.31.31.68.66.81.78.82.73 1.4 1.5 1.59 2.12.12.4.37.88.55 1.08.48.53.71 1.26.71 2.24 0 .48.13 1.48.28 2.22.34 1.62.28 11.29-.07 13.25-.12.64-.26 1.55-.31 2.01-.05.46-.28 1.11-.5 1.44-.22.33-.52.88-.66 1.23s-.81 1.17-1.48 1.82c-.96.93-1.22 1.3-1.22 1.71 0 .78.44 2.23.9 3.01.23.38.48 1.06.57 1.52.09.46.34 1.12.57 1.47.23.35.52 1.07.65 1.61.13.53.47 1.41.76 1.95.28.54.52 1.18.52 1.43 0 .24.21.8.46 1.23.25.43.59 1.29.75 1.92.16.63.48 1.4.72 1.71.98 1.28.84 1.32-5.77 1.32-6.51 0-6.54-.01-6.3-1.22.08-.4-.02-.84-.37-1.57-.27-.56-.56-1.52-.66-2.13-.1-.61-.35-1.39-.55-1.74-.21-.35-.53-1.31-.71-2.14-.18-.83-.46-1.65-.61-1.81-.15-.17-.4-.98-.56-1.81-.48-2.49-2.09-3.56-3.6-2.4l-.6.46v6.38c0 5.6.04 6.44.29 6.83.71 1.08.33 1.16-5.84 1.16s-6.27-.02-5.95-1.14c.1-.34.16-10.36.15-24.54-.01-13.18.02-24.03.07-24.1zm-117.15.32c.44.44.57 9.97.14 10.4-.16.16-1.57.22-5.17.22-4.94.01-5.81.1-6.51.68-.14.12-.45.36-.7.55l-.45.34-.1 24.35.9.88.9.88h5.53c4.89 0 5.56.03 5.85.3.51.46.51 10.1-.01 10.56-.57.51-13.45.36-14.59-.18-.44-.21-1.3-.52-1.89-.7-.59-.17-1.31-.51-1.59-.74-.28-.24-.58-.43-.67-.43-.24 0-3.23-3.03-3.23-3.27 0-.11-.2-.48-.45-.8-.44-.58-1.37-3.02-1.7-4.48-.21-.93-.21-26.89 0-27.97.24-1.21 1.18-3.76 1.59-4.32.2-.27.48-.76.63-1.1.24-.55.73-1.09 2.36-2.62.3-.28.88-.67 1.3-.86.42-.2.76-.42.76-.49 0-.22 1.04-.68 1.57-.69.28-.01 1.11-.2 1.85-.43 1.97-.61 13.08-.69 13.67-.1zm88.85.04l.17-.4h5.65c6.43 0 5.9-.14 6.32 1.72.15.69.39 1.45.52 1.7.23.42.4 1.1.82 3.33.09.49.37 1.47.62 2.16.25.69.46 1.55.46 1.91 0 .36.2 1.17.44 1.8.24.63.57 1.92.74 2.85.17.94.41 1.87.54 2.08.24.38.8 2.81.8 3.46 0 .19.21.81.46 1.38.25.57.53 1.62.62 2.34.09.72.3 1.66.46 2.09.16.43.48 1.64.71 2.68.23 1.04.58 2.31.78 2.82.2.51.44 1.53.53 2.26.09.73.33 1.66.54 2.06.2.4.5 1.49.65 2.42.15.93.48 2.17.72 2.77.24.59.5 1.61.56 2.25.07.64.31 1.59.54 2.09.57 1.26.89 3.06.61 3.41-.17.21-1.16.26-5.58.26-6.26 0-6.3-.01-6.26-1.25.02-.46-.06-.99-.16-1.19-.1-.2-.28-1-.39-1.78-.19-1.38-1.06-3.62-1.52-3.92-.37-.24-8.07-.16-8.57.09-.37.18-.52.51-.83 1.75-.21.84-.52 1.84-.69 2.23-.17.39-.35 1.32-.4 2.07-.16 2.19.44 1.99-6.14 1.99-6.71 0-6.73-.01-5.78-1.43.31-.47.57-1.16.64-1.7.17-1.26.53-2.77.86-3.52.15-.35.37-1.28.49-2.07.12-.79.41-1.89.65-2.45.24-.56.43-1.19.43-1.4 0-.69.56-3.15.8-3.52.13-.2.37-1.17.54-2.16.17-.99.46-2.13.65-2.53.19-.4.43-1.38.54-2.16.11-.78.39-1.91.62-2.5.23-.59.48-1.48.55-1.98.19-1.36.57-2.96.78-3.21.1-.12.32-.95.48-1.83.16-.89.46-2.06.66-2.6s.43-1.47.52-2.07c.2-1.34.51-2.55.81-3.17.13-.26.37-1.27.53-2.25.16-.98.46-2.14.66-2.59.2-.45.44-1.5.52-2.34.09-.84.24-1.71.33-1.93zM46.97 41.85c-1.16-.68-3.82 0-5.02 1.3l-.64.68v25l.73.85c.4.47.81.86.92.86.1 0 .44.21.74.47.9.76 3.05.6 4.56-.35 1.73-1.08 1.68-.65 1.68-14.4 0-13.54.02-13.37-1.85-13.95-.42-.13-.92-.33-1.12-.45zm237.86.61c-.76-.21-4.73-.17-5.12.05-.62.35-.62.44-.63 6.64v6.04l.59.32c.74.4 5 .35 5.63-.06 1.51-.99 1.1-12.55-.47-12.99zm-38.6 8.93c-.54-1.41-1.59 1.17-1.94 4.76-.16 1.62-.4 3.04-.64 3.74-.76 2.18-.2 2.91 2.22 2.91 1.5 0 1.69-.12 1.86-1.16.11-.66-.23-3.19-.5-3.72-.17-.33-.63-3.3-.78-5.06-.06-.67-.15-1.33-.21-1.48zM24.05 106.32c.27-.5 250.01-.55 250.57-.05.54.49.49 4.81-.06 5.4l-.39.42H24.71l-.42-.39c-.46-.43-.64-4.61-.23-5.38z" fill="#fff"/></svg>
